<?xml version="1.0" encoding="UTF-8" standalone="no"?>
<svg width="19px" height="22px" viewBox="0 0 19 22" version="1.1" xmlns="http://www.w3.org/2000/svg" xmlns:xlink="http://www.w3.org/1999/xlink">
    <!-- Generator: Sketch 42 (36781) - http://www.bohemiancoding.com/sketch -->
    <title>Alert</title>
    <desc>Created with Sketch.</desc>
    <defs></defs>
    <g id="Page-1" stroke="none" stroke-width="1" fill="none" fill-rule="evenodd">
        <g id="3_0_dashboard" transform="translate(-328.000000, -230.000000)" fill="#FFFFFF">
            <g id="Group-4" transform="translate(310.000000, 0.000000)">
                <g id="Group-11">
                    <g id="Group-10">
                        <g id="Group-8" transform="translate(0.000000, 50.000000)">
                            <g id="Group-5" transform="translate(18.000000, 174.000000)">
                                <g id="Group-7">
                                    <path d="M6.66585134,23.6319998 L11.5741484,23.6319998 C11.6705599,23.9079406 11.7257141,24.2041582 11.7257141,24.5135998 L6.51428563,24.5135998 C6.51428563,24.2041582 6.56943992,23.9079406 6.66585134,23.6319998 Z M9.11999989,26.2767997 C10.0780342,26.2767997 10.8571427,25.4860046 10.8571427,24.5135998 L11.7257141,24.5135998 C11.7257141,25.9744109 10.5592227,27.1583997 9.11999989,27.1583997 C7.68077705,27.1583997 6.51428563,25.9744109 6.51428563,24.5135998 L7.38285705,24.5135998 C7.38285705,25.4860046 8.16196561,26.2767997 9.11999989,26.2767997 Z M3.99673138,11.6378319 C4.36847995,9.60971115 5.88196564,7.99197518 7.83364562,7.48814078 C7.82669704,7.43348158 7.81714276,7.37926318 7.81714276,7.32239998 C7.81714276,6.59199439 8.40038847,6 9.11999989,6 C9.83961131,6 10.422857,6.59199439 10.422857,7.32239998 C10.422857,7.37926318 10.4133027,7.43348158 10.4063542,7.48814078 C12.3580341,7.99197518 13.8715198,9.60971115 14.2432684,11.6378319 L15.4371198,18.1488886 C15.5656684,18.8493198 15.9000684,19.4937694 16.3960227,19.997163 L17.8582626,21.4813366 C18.1027655,21.729507 18.2399998,22.0658374 18.2399998,22.4167142 L18.2399998,23.1911998 C18.2399998,23.9216054 17.6567541,24.5135998 16.9371426,24.5135998 L11.7257141,24.5135998 C11.7257141,24.2041582 11.6705599,23.9079406 11.5741484,23.6319998 L16.9371426,23.6319998 C17.1764341,23.6319998 17.3714284,23.4340806 17.3714284,23.1911998 L17.3714284,22.4167142 C17.3714284,22.300343 17.3249598,22.1870574 17.2441826,22.1050686 L15.7819427,20.6204542 C15.1587427,19.988347 14.7444341,19.1891766 14.5833141,18.3102214 L13.3894627,11.7991647 C13.0815541,10.1210391 11.8269027,8.76425677 10.1922513,8.34285197 L9.44831988,8.15066317 L9.54473131,7.37749998 L9.55081131,7.33077518 L9.55385131,7.30653118 C9.54559988,7.07070319 9.35407988,6.88159999 9.11999989,6.88159999 C8.88591989,6.88159999 8.69396561,7.07070319 8.68614846,7.30653118 L8.68918846,7.33077518 L8.69526846,7.37749998 L8.79167989,8.15066317 L8.04774847,8.34285197 C6.41309706,8.76425677 5.15844565,10.1210391 4.85053708,11.7991647 L3.65668567,18.3102214 C3.49556567,19.1891766 3.08082282,19.988347 2.45805711,20.6204542 L0.99581713,22.1050686 C0.915039989,22.1870574 0.868571418,22.300343 0.868571418,22.4167142 L0.868571418,23.1911998 C0.868571418,23.4340806 1.0635657,23.6319998 1.30285713,23.6319998 L6.66585134,23.6319998 C6.56943992,23.9079406 6.51428563,24.2041582 6.51428563,24.5135998 L1.30285713,24.5135998 C0.583245707,24.5135998 0,23.9216054 0,23.1911998 L0,22.4167142 C0,22.0658374 0.137234284,21.729507 0.381737138,21.4813366 L1.84397712,19.997163 C2.3399314,19.4937694 2.6743314,18.8493198 2.80287996,18.1488886 L3.99673138,11.6378319 Z" id="Alert"></path>
                                </g>
                            </g>
                        </g>
                    </g>
                </g>
            </g>
        </g>
    </g>
</svg>