<?xml version="1.0" encoding="UTF-8" standalone="no"?>
<svg width="17px" height="20px" viewBox="0 0 17 20" version="1.1" xmlns="http://www.w3.org/2000/svg" xmlns:xlink="http://www.w3.org/1999/xlink">
    <!-- Generator: Sketch 43 (38999) - http://www.bohemiancoding.com/sketch -->
    <title>login</title>
    <desc>Created with Sketch.</desc>
    <defs></defs>
    <g id="Page-1" stroke="none" stroke-width="1" fill="none" fill-rule="evenodd">
        <g id="1_0_dashboard" transform="translate(-1474.000000, -41.000000)" fill="#474747">
            <g id="Group-22" transform="translate(434.000000, 0.000000)">
                <g id="Group-13" transform="translate(1040.000000, 41.000000)">
                    <g id="login">
                        <path d="M16.2628516,19.3839844 L2.75152344,19.3839844 L2.75152344,9.91785156 C2.75152344,9.40832031 3.16605469,8.99382813 3.67554688,8.99382813 L15.3388281,8.99382813 C15.8483203,8.99382813 16.2628516,9.40832031 16.2628516,9.91785156 L16.2628516,19.3839844 Z M12.3811719,2.82667969 C11.5995703,2.05265625 10.5646484,1.63105469 9.46695313,1.64292969 C7.23597656,1.66457031 5.4209375,3.51914062 5.4209375,5.77710938 L5.4209375,6.899375 L4.39425781,6.899375 L4.39425781,5.78859375 C4.39425781,2.95257813 6.67449219,0.6321875 9.47730469,0.61609375 C9.48738281,0.616054688 9.49730469,0.616015625 9.50738281,0.616015625 C10.8653906,0.616015625 12.1439844,1.14410156 13.1103125,2.10488281 C14.0839063,3.07292969 14.6201172,4.36 14.6201172,5.72894531 L14.6201172,8.3778125 L13.5934375,8.3778125 L13.5934375,5.72894531 C13.5934375,4.6315625 13.1629297,3.60085938 12.3811719,2.82667969 Z M15.3388281,8.3778125 L15.2361328,8.3778125 L15.2361328,5.72894531 C15.2361328,4.19476562 14.6354297,2.75261719 13.5446484,1.66804687 C12.4619531,0.5915625 11.0294531,0 9.5075,0 C9.49628906,0 9.485,3.90625e-05 9.47375,7.8125e-05 C6.33324219,0.018125 3.77824219,2.61480469 3.77824219,5.78859375 L3.77824219,7.20738281 C3.77824219,7.3775 3.91613281,7.51539063 4.08625,7.51539063 L5.72894531,7.51539063 C5.8990625,7.51539063 6.03695313,7.3775 6.03695313,7.20738281 L6.03695313,5.77710938 C6.03695313,3.85550781 7.57832031,2.27726563 9.47289063,2.25890625 C10.4057813,2.25160156 11.2838672,2.60695312 11.9477344,3.264375 C12.6117188,3.92203125 12.9774219,4.79726562 12.9774219,5.72894531 L12.9774219,8.3778125 L3.67554688,8.3778125 C2.82636719,8.3778125 2.13550781,9.06867187 2.13550781,9.91785156 L2.13550781,19.6919922 C2.13550781,19.8621094 2.2734375,20 2.44351563,20 L16.5708594,20 C16.7409375,20 16.8788672,19.8621094 16.8788672,19.6919922 L16.8788672,9.91785156 C16.8788672,9.06867187 16.1880078,8.3778125 15.3388281,8.3778125 L15.3388281,8.3778125 Z" id="Fill-1"></path>
                        <path d="M12.1560547,18.2341016 L6.85832031,18.2341016 L6.85832031,16.899375 C6.85832031,15.4388281 8.04660156,14.2505078 9.5071875,14.2505078 C10.9677734,14.2505078 12.1560547,15.4388281 12.1560547,16.899375 L12.1560547,18.2341016 Z M8.00820313,11.6426953 C8.00820313,10.8161719 8.68066406,10.14375 9.5071875,10.14375 C10.3337109,10.14375 11.0061719,10.8161719 11.0061719,11.6426953 C11.0061719,12.4692578 10.3337109,13.1416797 9.5071875,13.1416797 C8.68066406,13.1416797 8.00820313,12.4692578 8.00820313,11.6426953 Z M10.0635547,13.6829297 C10.960625,13.4379297 11.6221875,12.6163281 11.6221875,11.6426953 C11.6221875,10.4765234 10.6733984,9.52773438 9.5071875,9.52773438 C8.34097656,9.52773438 7.3921875,10.4765234 7.3921875,11.6426953 C7.3921875,12.6163281 8.05375,13.4379297 8.95082031,13.6829297 C7.41476563,13.9478906 6.24230469,15.2888672 6.24230469,16.899375 L6.24230469,18.5421094 C6.24230469,18.7121875 6.38019531,18.8501172 6.5503125,18.8501172 L12.4640625,18.8501172 C12.6341797,18.8501172 12.7720703,18.7121875 12.7720703,18.5421094 L12.7720703,16.899375 C12.7720703,15.2888672 11.5996094,13.9478906 10.0635547,13.6829297 L10.0635547,13.6829297 Z" id="Fill-2"></path>
                        <path d="M14.928125,10.5133594 C14.7580469,10.5133594 14.6201172,10.65125 14.6201172,10.8213672 L14.6201172,14.928125 C14.6201172,15.0982422 14.7580469,15.2361328 14.928125,15.2361328 C15.0982422,15.2361328 15.2361328,15.0982422 15.2361328,14.928125 L15.2361328,10.8213672 C15.2361328,10.65125 15.0982422,10.5133594 14.928125,10.5133594" id="Fill-3"></path>
                        <path d="M14.928125,15.7700391 C14.7580469,15.7700391 14.6201172,15.9079297 14.6201172,16.0780469 L14.6201172,17.7207422 C14.6201172,17.8908594 14.7580469,18.02875 14.928125,18.02875 C15.0982422,18.02875 15.2361328,17.8908594 15.2361328,17.7207422 L15.2361328,16.0780469 C15.2361328,15.9079297 15.0982422,15.7700391 14.928125,15.7700391" id="Fill-4"></path>
                        <path d="M1.89375,7.15585937 C1.89375,6.98574219 1.75585937,6.84785156 1.58574219,6.84785156 L0.308007812,6.84785156 C0.137890625,6.84785156 0,6.98574219 0,7.15585937 C0,7.3259375 0.137890625,7.46386719 0.308007812,7.46386719 L1.58574219,7.46386719 C1.75585937,7.46386719 1.89375,7.3259375 1.89375,7.15585937" id="Fill-5"></path>
                        <path d="M1.7246875,6.32820312 C1.78480469,6.38832031 1.86367188,6.4184375 1.94246094,6.4184375 C2.02128906,6.4184375 2.10011719,6.38835937 2.16023438,6.32820312 C2.28054688,6.20792969 2.28054688,6.01289062 2.16023438,5.89261719 L1.34714844,5.07949219 C1.226875,4.95921875 1.03183594,4.95921875 0.911601563,5.07949219 C0.791289063,5.19980469 0.791289063,5.39484375 0.911601563,5.51511719 L1.7246875,6.32820312" id="Fill-6"></path>
                        <path d="M2.15199219,7.98347656 C2.03171875,7.86320313 1.83667969,7.86320313 1.71640625,7.98347656 L0.903320312,8.79660156 C0.783046875,8.916875 0.783046875,9.11191406 0.903320312,9.23214844 C0.9634375,9.29230469 1.04230469,9.32238281 1.12109375,9.32238281 C1.19992187,9.32238281 1.27878906,9.29230469 1.33890625,9.23214844 L2.15199219,8.4190625 C2.27230469,8.29882813 2.27230469,8.10378906 2.15199219,7.98347656" id="Fill-7"></path>
                    </g>
                </g>
            </g>
        </g>
    </g>
</svg>