<?xml version="1.0" encoding="UTF-8" standalone="no"?>
<svg width="192px" height="192px" viewBox="0 0 192 192" version="1.1" xmlns="http://www.w3.org/2000/svg" xmlns:xlink="http://www.w3.org/1999/xlink">
    <!-- Generator: Sketch 43 (38999) - http://www.bohemiancoding.com/sketch -->
    <title>Group 10</title>
    <desc>Created with Sketch.</desc>
    <defs>
        <rect id="path-1" x="0" y="0" width="190" height="190"></rect>
    </defs>
    <g id="Page-1" stroke="none" stroke-width="1" fill="none" fill-rule="evenodd">
        <g id="5_1_add-members" transform="translate(-1201.000000, -418.000000)">
            <g id="Group-4" transform="translate(464.000000, 120.000000)">
                <g id="Group-44" transform="translate(25.000000, 88.000000)">
                    <g id="Group-24" transform="translate(44.000000, 211.000000)">
                        <g id="Group-19" transform="translate(669.000000, 0.000000)">
                            <g id="Group-8">
                                <g id="Group-10">
                                    <g id="Rectangle-1205-Copy">
                                        <use fill="#FFFFFF" fill-rule="evenodd" xlink:href="#path-1"></use>
                                        <rect stroke="#C6C6C6" stroke-width="0.5" x="-0.25" y="-0.25" width="190.5" height="190.5"></rect>
                                    </g>
                                    <path d="M121.469125,108.176468 L121.079915,108.000754 C120.152168,107.579159 119.217824,107.180354 118.266688,106.807936 C117.226196,106.391139 116.171911,106.006727 115.101433,105.646303 C114.258245,105.367439 113.405461,105.109565 112.546081,104.856488 C111.23632,104.477473 109.912766,104.135041 108.549632,103.832788 C108.087857,103.736835 107.617087,103.643281 107.146317,103.561121 L106.827272,103.498152 C106.021866,103.341028 105.21346,103.203096 104.398458,103.083154 L104.163973,103.045972 C104.154377,103.045972 104.14778,103.038776 104.138185,103.038776 L103.9037,103.008191 C103.22723,102.90744 102.55016,102.811487 101.847303,102.731726 L99.4550713,102.535022 C96.5129075,102.340717 93.4819871,102.345514 90.5746063,102.55841 L89.7266203,102.629176 L89.3332123,102.659161 L88.3418963,102.750916 C87.4333398,102.844471 86.5289812,102.971009 85.6270215,103.116138 L85.3601518,103.15392 C84.7436528,103.25467 84.1277534,103.369215 83.5208497,103.483759 C82.8437802,103.6037 82.1787049,103.736835 81.5130298,103.881964 C80.2248587,104.170423 78.9432843,104.500862 77.7042891,104.861286 C76.7177707,105.144948 75.7432464,105.456196 74.8274934,105.772841 L74.1924034,106.00013 C72.2505514,106.688594 70.3200937,107.47601 68.4508063,108.342587 L67.9518498,108.58127 L67.9428542,108.593264 C46.0907215,119.052758 32,141.336081 32,165.516277 C32,166.071606 32.0371818,166.614941 32.0701657,167.165472 L32.2344855,171 L158.023081,171 L158.191599,167.207451 C158.22878,166.647925 158.264163,166.087798 158.264163,165.516277 C158.264163,140.94927 143.82921,118.469843 121.469125,108.176468 Z M38.167989,164.83441 C38.4348588,143.123208 51.270393,123.20873 70.8334431,114.035008 L71.4637355,113.789128 L71.5363,113.716563 C73.0679524,113.018504 74.6517792,112.378616 76.254197,111.814292 L76.7627487,111.63378 C77.6365222,111.331528 78.505498,111.052664 79.4098565,110.797788 C80.5343076,110.467349 81.6821473,110.172294 82.8323858,109.912021 C83.4272954,109.787881 84.0222049,109.666141 84.6363052,109.551597 C85.1208686,109.46224 85.6060318,109.371085 86.0953929,109.293722 L86.3364752,109.249344 C87.2174452,109.110812 88.1032128,108.984273 88.9859818,108.88832 L91.003397,108.712606 C93.6409095,108.518301 96.1662767,108.492514 99.2259831,108.712606 L101.186426,108.876926 C101.66919,108.932699 102.153754,108.998666 102.744466,109.080227 L103.449721,109.180977 C104.187361,109.291324 104.923202,109.415463 105.663241,109.555794 L106.007473,109.619363 C106.424869,109.696726 106.839267,109.778286 107.230276,109.860446 C108.444083,110.125516 109.6387,110.439163 110.821922,110.783395 C111.603941,111.010684 112.381761,111.24517 113.14099,111.498246 C114.101122,111.81909 115.052257,112.168119 115.991999,112.540537 C116.895757,112.894365 117.786323,113.273979 118.669692,113.678782 L118.821417,113.749547 C138.83005,122.927467 151.824507,142.907913 152.088978,164.827213 L38.167989,164.827213 L38.167989,164.83441 Z M79.8896223,94.6104901 C80.3537957,94.8047953 80.8317624,94.973313 81.3097291,95.1442296 L82.3100408,95.5076522 C82.6962522,95.6551802 83.0854622,95.8003093 83.4788702,95.9244487 C87.1544759,97.0794849 90.9985994,97.6743945 94.9080909,97.7049795 L95.2199387,97.7115763 C96.5620835,97.7115763 97.9066272,97.6414106 99.195398,97.5082756 C99.637982,97.4656964 100.07157,97.3955306 100.504559,97.3205672 L101.470088,97.175438 C102.013422,97.1052723 102.556757,97.0255112 103.12408,96.9127663 C103.512691,96.8336049 103.887508,96.7328541 104.264723,96.6297044 L105.319009,96.362235 C105.838955,96.2356968 106.3613,96.1097583 106.876448,95.9478373 C107.197892,95.8470865 107.511538,95.7301436 107.823386,95.612601 L108.671372,95.3085494 C109.275277,95.0974524 109.88458,94.8821575 110.496281,94.6266822 C110.732566,94.5235326 110.964653,94.4131865 111.191942,94.30344 L111.466008,94.1673065 C112.302,93.7924895 113.136193,93.4110756 113.96079,92.967892 L114.496928,92.6470486 C115.422277,92.1223048 116.345826,91.57897 117.277771,90.9414812 C117.762934,90.6134413 118.224109,90.2482196 118.681086,89.8853967 L120.260115,88.657796 C129.337884,81.1422648 134.554737,70.1160473 134.554737,58.6790304 L134.573328,58.3533893 C134.573328,36.6517831 116.919746,19 95.2175399,19 C74.5042512,19 57.2698643,35.1968934 55.9858911,55.875399 L55.9511081,56.3857499 C55.9013324,57.0370319 55.8617517,57.688314 55.8617517,58.3533893 C55.8545552,74.2036519 65.2885499,88.4329058 79.8896223,94.6104901 Z M62.0999065,56.8145405 L62.1352892,56.2592116 C63.2219588,38.8233231 77.7510663,25.1661899 95.215141,25.1661899 C113.518206,25.1661899 128.40294,40.0533227 128.419132,58.0727263 L128.400541,58.3959685 C128.389147,68.2701484 123.984897,77.5656107 116.291852,83.9512935 L114.827367,85.0661493 C114.501726,85.3336187 114.171887,85.5980896 113.761687,85.8817511 C113.021649,86.3855052 112.236632,86.8376845 111.442619,87.2874649 L111.001835,87.5567335 C110.33436,87.9129596 109.636301,88.2314041 108.907657,88.5546464 L108.090256,88.9504531 C107.621885,89.1447583 107.127126,89.313276 106.640164,89.4823935 L105.62366,89.850014 C105.426956,89.9249774 105.225454,90.0047385 105.03055,90.0629101 C104.651535,90.1804527 104.264723,90.2692094 103.877912,90.3651625 L102.648512,90.6794091 C102.383442,90.7495749 102.12137,90.8245383 101.886884,90.8737143 C101.477284,90.9534753 101.057489,91.0098478 100.640693,91.0680194 L99.4694642,91.2437337 C99.1858027,91.2929096 98.9027409,91.3420856 98.5836966,91.3726707 C97.5575975,91.480618 96.5249017,91.5387896 95.475414,91.5483849 L95.1869548,91.5459861 L95.180358,91.5459861 C91.8046059,91.5435873 88.4894242,91.0398332 85.3199714,90.046718 C85.0459052,89.962759 84.7766367,89.8524128 84.5097669,89.751662 L83.3499331,89.3300678 C82.9889094,89.2035296 82.6308841,89.0793902 82.2866522,88.934261 C69.9782606,83.7288021 62.0225443,71.7208639 62.0225443,58.3557882 C62.0225443,57.8334431 62.0627246,57.3230923 62.0999065,56.8145405 Z" id="user" fill="#F2F2F2"></path>
                                </g>
                            </g>
                        </g>
                    </g>
                </g>
            </g>
        </g>
    </g>
</svg>