<?xml version="1.0" encoding="UTF-8" standalone="no"?>
<svg width="100px" height="70px" viewBox="0 0 100 70" version="1.1" xmlns="http://www.w3.org/2000/svg" xmlns:xlink="http://www.w3.org/1999/xlink">
    <!-- Generator: Sketch 42 (36781) - http://www.bohemiancoding.com/sketch -->
    <title>Group 14</title>
    <desc>Created with Sketch.</desc>
    <defs></defs>
    <g id="Page-1" stroke="none" stroke-width="1" fill="none" fill-rule="evenodd">
        <g id="4_3_association-membership-type" transform="translate(-976.000000, -608.000000)" fill="#474747">
            <g id="Group-4" transform="translate(470.000000, 120.000000)">
                <g id="Group-183" transform="translate(46.000000, 92.000000)">
                    <g id="Group-22" transform="translate(188.000000, 357.000000)">
                        <g id="Group-20" transform="translate(228.000000, 0.000000)">
                            <g id="Group-18" transform="translate(0.000000, 13.000000)">
                                <g id="Group-14" transform="translate(44.000000, 26.000000)">
                                    <text id="Customizable-ID" font-family="ProximaNova-Regular, Proxima Nova" font-size="14" font-weight="normal">
                                        <tspan x="0" y="69">Customizable ID</tspan>
                                    </text>
                                    <g id="id-card" transform="translate(22.000000, 0.000000)">
                                        <path d="M53.3020833,0.955555556 L4.03125,0.955555556 C1.806,0.955555556 0,2.76155556 0,4.98680556 L0,38.9723333 C0,41.1928056 1.806,42.9988056 4.03125,42.9988056 L53.3020833,42.9988056 C55.5273333,42.9988056 57.3333333,41.1928056 57.3333333,38.9723333 L57.3333333,4.98680556 C57.3333333,2.76155556 55.5273333,0.955555556 53.3020833,0.955555556 Z M55.4198333,38.9723333 C55.4198333,40.1393056 54.4726389,41.0912778 53.3020833,41.0912778 L4.03125,41.0912778 C2.86069444,41.0912778 1.9135,40.1393056 1.9135,38.9723333 L1.9135,4.98680556 C1.9135,3.81625 2.86069444,2.86905556 4.03125,2.86905556 L53.3020833,2.86905556 C54.4726389,2.86905556 55.4198333,3.81625 55.4198333,4.98680556 L55.4198333,38.9723333 Z" id="Fill-1"></path>
                                        <path d="M21.6301944,27.9476111 L18.1543611,26.1690833 L18.1543611,25.8011944 C19.7131111,24.9519444 20.8048333,23.5520556 21.4163889,21.6301944 C22.3396944,21.1392778 22.9321389,20.1837222 22.9321389,19.1099167 L22.9321389,18.1531667 C22.9321389,17.2716667 22.52125,16.4510833 21.8308611,15.91 C21.2384167,12.298 18.7145556,10.4693056 14.3333333,10.4693056 C14.1278889,10.4693056 13.9224444,10.4740833 13.7265556,10.492 C12.9011944,10.5576944 11.6924167,10.4872222 10.6425,9.78369444 C10.2555,9.52211111 9.95688889,9.26530556 9.77055556,9.02761111 C9.44805556,8.61672222 8.91175,8.47219444 8.43158333,8.66808333 C7.95022222,8.86875 7.67072222,9.34413889 7.73163889,9.86252778 C7.76866667,10.2172778 7.82958333,10.6329444 7.92275,11.0892222 C8.10430556,12.0232778 8.10430556,12.0232778 7.8475,12.5775 C7.74955556,12.7877222 7.62891667,13.0493056 7.48916667,13.3945 C7.17144444,14.1685 6.94688889,15.01775 6.81669444,15.9231389 C6.14063889,16.4642222 5.73452778,17.2812222 5.73452778,18.1531667 L5.73452778,19.1099167 C5.73452778,20.1837222 6.32697222,21.1392778 7.25027778,21.6301944 C7.86183333,23.5520556 8.95355556,24.9519444 10.5123056,25.8011944 L10.5123056,26.1607222 L6.90986111,27.9380556 C5.59477778,28.6511389 4.77777778,30.0283333 4.77777778,31.5261667 L4.77777778,32.7946667 C4.77777778,33.5603056 4.77777778,35.35675 14.3333333,35.35675 C23.8888889,35.35675 23.8888889,33.5603056 23.8888889,32.7946667 L23.8888889,31.605 C23.8888889,30.04625 23.0253056,28.6427778 21.6301944,27.9476111 Z M21.9753889,32.5760833 C21.3829444,32.9391944 18.9570278,33.44325 14.3333333,33.44325 C9.70963889,33.44325 7.28372222,32.9391944 6.69127778,32.5760833 L6.69127778,31.5261667 C6.69127778,30.7282778 7.12486111,29.9948889 7.79136111,29.6317778 L11.4726389,27.8162222 C12.0519444,27.5367222 12.4198333,26.9395 12.4198333,26.3004722 L12.4198333,24.5733056 L11.8417222,24.3260556 C10.39525,23.7013611 9.45283333,22.5116944 8.96311111,20.683 L8.82813889,20.1741667 L8.32408333,20.0153056 C7.92275,19.8934722 7.64205556,19.5208056 7.64205556,19.1099167 L7.64205556,18.1531667 C7.64205556,17.8079722 7.84272222,17.4866667 8.16044444,17.31825 L8.60836111,17.0805556 L8.6645,16.5717222 C8.75766667,15.6758889 8.95833333,14.8505278 9.25694444,14.1183333 C9.38236111,13.8101667 9.48986111,13.5760556 9.57944444,13.3849444 C9.90552778,12.6897778 10.0225833,12.33025 9.93777778,11.5932778 C11.0629444,12.2370833 12.41625,12.5082222 13.8806389,12.3959444 C14.0251667,12.3863889 14.17925,12.3768333 14.3333333,12.3768333 C17.9118889,12.3768333 19.6569722,13.674 19.9973889,16.5812778 L20.0583056,17.0805556 L20.5014444,17.3134722 C20.8239444,17.4866667 21.0246111,17.8079722 21.0246111,18.1531667 L21.0246111,19.1099167 C21.0246111,19.5208056 20.7439167,19.8934722 20.3425833,20.0153056 L19.8385278,20.1741667 L19.7035556,20.683 C19.2138333,22.5116944 18.2714167,23.7013611 16.8201667,24.3260556 L16.2468333,24.5733056 L16.2468333,26.30525 C16.2468333,26.9442778 16.5968056,27.5223889 17.1653611,27.8114444 L20.7725833,29.6544722 C21.5143333,30.0235556 21.9753889,30.7748611 21.9753889,31.605 L21.9753889,32.5760833 Z" id="Fill-2"></path>
                                        <path d="M28.6666667,15.2888889 L38.2222222,15.2888889 C38.7489722,15.2888889 39.1789722,14.8600833 39.1789722,14.3321389 C39.1789722,13.8053889 38.7489722,13.3753889 38.2222222,13.3753889 L28.6666667,13.3753889 C28.1399167,13.3753889 27.7099167,13.8053889 27.7099167,14.3321389 C27.7099167,14.8600833 28.1399167,15.2888889 28.6666667,15.2888889 Z" id="Fill-3"></path>
                                        <path d="M42.04325,15.2888889 L43,15.2888889 C43.52675,15.2888889 43.95675,14.8600833 43.95675,14.3321389 C43.95675,13.8053889 43.52675,13.3753889 43,13.3753889 L42.04325,13.3753889 C41.5165,13.3753889 41.0865,13.8053889 41.0865,14.3321389 C41.0865,14.8600833 41.5165,15.2888889 42.04325,15.2888889 Z" id="Fill-4"></path>
                                        <path d="M29.6234167,29.6222222 L28.6666667,29.6222222 C28.1399167,29.6222222 27.7099167,30.0510278 27.7099167,30.5789722 C27.7099167,31.1057222 28.1399167,31.5357222 28.6666667,31.5357222 L29.6234167,31.5357222 C30.1501667,31.5357222 30.5801667,31.1057222 30.5801667,30.5789722 C30.5801667,30.0510278 30.1501667,29.6222222 29.6234167,29.6222222 Z" id="Fill-5"></path>
                                        <path d="M35.3579444,29.6222222 L33.4444444,29.6222222 C32.9176944,29.6222222 32.4876944,30.0510278 32.4876944,30.5789722 C32.4876944,31.1057222 32.9176944,31.5357222 33.4444444,31.5357222 L35.3579444,31.5357222 C35.8846944,31.5357222 36.3087222,31.1057222 36.3087222,30.5789722 C36.3087222,30.0510278 35.8846944,29.6222222 35.3579444,29.6222222 Z" id="Fill-6"></path>
                                        <path d="M40.1357222,29.6222222 L39.1789722,29.6222222 C38.6510278,29.6222222 38.2222222,30.0510278 38.2222222,30.5789722 C38.2222222,31.1057222 38.6510278,31.5357222 39.1789722,31.5357222 L40.1357222,31.5357222 C40.6624722,31.5357222 41.0865,31.1057222 41.0865,30.5789722 C41.0865,30.0510278 40.6624722,29.6222222 40.1357222,29.6222222 Z" id="Fill-7"></path>
                                        <path d="M45.8642778,29.6222222 L43.95675,29.6222222 C43.4288056,29.6222222 43,30.0510278 43,30.5789722 C43,31.1057222 43.4288056,31.5357222 43.95675,31.5357222 L45.8642778,31.5357222 C46.397,31.5357222 46.8210278,31.1057222 46.8210278,30.5789722 C46.8210278,30.0510278 46.397,29.6222222 45.8642778,29.6222222 Z" id="Fill-8"></path>
                                        <path d="M49.00925,29.8969444 C48.83725,30.0796944 48.7345278,30.3317222 48.7345278,30.5789722 C48.7345278,30.8262222 48.83725,31.0734722 49.00925,31.2550278 C49.192,31.4282222 49.43925,31.5357222 49.6912778,31.5357222 C49.9385278,31.5357222 50.1857778,31.4282222 50.3673333,31.2550278 C50.5393333,31.0734722 50.6420556,30.8262222 50.6420556,30.5789722 C50.6420556,30.3317222 50.5393333,30.0796944 50.3673333,29.8969444 C50.0030278,29.5469722 49.364,29.5469722 49.00925,29.8969444 Z" id="Fill-9"></path>
                                        <path d="M49.6912778,19.1099167 L28.6666667,19.1099167 C28.1399167,19.1099167 27.7099167,19.5399167 27.7099167,20.0666667 C27.7099167,20.5934167 28.1399167,21.0234167 28.6666667,21.0234167 L49.6912778,21.0234167 C50.2180278,21.0234167 50.6420556,20.5934167 50.6420556,20.0666667 C50.6420556,19.5399167 50.2180278,19.1099167 49.6912778,19.1099167 Z" id="Fill-10"></path>
                                        <path d="M49.6912778,24.8444444 L28.6666667,24.8444444 C28.1399167,24.8444444 27.7099167,25.27325 27.7099167,25.8011944 C27.7099167,26.3279444 28.1399167,26.7579444 28.6666667,26.7579444 L49.6912778,26.7579444 C50.2180278,26.7579444 50.6420556,26.3279444 50.6420556,25.8011944 C50.6420556,25.27325 50.2180278,24.8444444 49.6912778,24.8444444 Z" id="Fill-11"></path>
                                    </g>
                                </g>
                            </g>
                        </g>
                    </g>
                </g>
            </g>
        </g>
    </g>
</svg>