<?xml version="1.0" encoding="UTF-8" standalone="no"?>
<svg width="225px" height="227px" viewBox="0 0 225 227" version="1.1" xmlns="http://www.w3.org/2000/svg" xmlns:xlink="http://www.w3.org/1999/xlink">
    <!-- Generator: Sketch 43 (38999) - http://www.bohemiancoding.com/sketch -->
    <title>Group 173</title>
    <desc>Created with Sketch.</desc>
    <defs></defs>
    <g id="Page-1" stroke="none" stroke-width="1" fill="none" fill-rule="evenodd">
        <g id="Group-173" fill="#FFFFFF">
            <path d="M191.98535,33.185123 C170.719298,11.7797879 142.507676,0 112.443109,0 C82.377947,0 54.1669196,11.7797879 32.9008678,33.185123 C-8.19990117,74.5568394 -11.0548398,140.782232 25.8137696,185.459831 C22.197078,192.785088 16.3944346,201.309871 7.78383033,205.572263 C3.64443694,207.630134 1.31457869,212.084067 2.02757002,216.681058 C2.74056135,221.278048 6.26210821,224.869447 10.8290585,225.587128 C12.9686272,225.923522 16.0138554,226.258121 19.7233132,226.258121 C29.6677286,226.258121 44.3200276,223.910543 59.3047387,213.042971 C76.0020562,222.0915 94.2710468,226.496351 112.396726,226.496351 C141.50925,226.496351 170.338124,215.149326 192.031733,193.313622 C213.29719,171.907688 225,143.513491 225,113.248175 C225,82.9858523 213.248428,54.5886624 191.98535,33.185123 Z M182.897832,184.166928 C150.786463,216.489517 101.072711,222.904952 61.9693877,199.778738 C59.4004782,198.244612 56.2131274,198.724064 54.1669196,200.783731 C53.97663,200.8801 53.7857458,201.022559 53.6442179,201.165018 C40.7520977,211.221533 28.0972448,213.327889 19.7233132,213.327889 L19.6769301,213.327889 C29.3329379,206.24146 35.4233943,195.707888 38.9913242,187.519499 C39.5627877,186.130824 39.6579325,184.693068 39.3237364,183.352877 C39.1822085,182.059974 38.6595068,180.76707 37.7532526,179.712396 C2.93144561,140.111239 4.73860212,79.7775361 41.9414077,42.3300213 C80.8080578,3.20771765 144.031776,3.20771765 182.84907,42.3300213 C221.764482,81.4517265 221.764482,145.044624 182.897832,184.166928 Z" id="Fill-1"></path>
            <g id="Group" transform="translate(63.109756, 77.334629)">
                <path d="M41.1585366,70.2396894 L60.1408537,70.2396894 L94.3106707,21.9663093 C94.3106707,21.9663093 95.5756098,18.2708188 90.8314024,19.8589407 C86.0844512,21.4553484 81.4115854,12.3271002 79.5210366,14.0201762 C76.7579268,16.4976463 62.352439,38.8584018 62.352439,38.8584018 L41.1585366,70.2396894" id="Fill-18"></path>
                <path d="M65.2143293,7.98756238 C65.2143293,12.3983982 61.6692073,15.9723628 57.3009146,15.9723628 C52.929878,15.9723628 49.3902439,12.3983982 49.3902439,7.98756238 C49.3902439,3.57396463 52.929878,0 57.3009146,0 C61.6692073,0 65.2143293,3.57396463 65.2143293,7.98756238" id="Fill-19"></path>
                <path d="M100.874085,7.98756238 C100.874085,12.3983982 97.3317073,15.9723628 92.9661585,15.9723628 C88.6006098,15.9723628 85.0609756,12.3983982 85.0609756,7.98756238 C85.0609756,3.57396463 88.6006098,0 92.9661585,0 C97.3317073,0 100.874085,3.57396463 100.874085,7.98756238" id="Fill-20"></path>
                <path d="M35.0204268,10.7467515 C35.0204268,15.1575873 31.4807927,18.726028 27.1097561,18.726028 C22.752439,18.726028 19.2073171,15.1575873 19.2073171,10.7467515 C19.2073171,6.33591566 22.752439,2.76195103 27.1097561,2.76195103 C31.4807927,2.76195103 35.0204268,6.33591566 35.0204268,10.7467515" id="Fill-21"></path>
                <path d="M13.8841463,71.5401496 L31.442378,71.5401496 L61.0957317,26.2938679 C61.0957317,26.2938679 63.6942073,22.115036 58.8073171,23.0789569 C50.7402439,24.6726026 48.9347561,14.6025292 47.0990854,16.9198061 C41.7210366,23.7280154 13.7195122,66.6155909 13.7195122,66.6155909 L13.8841463,71.5401496" id="Fill-22"></path>
                <path d="M8.41280488,54.1486193 L28.6710366,26.471108 C28.6710366,26.471108 30.2515244,22.1624644 24.5579268,23.1180995 C18.8588415,24.0764965 19.8082317,16.2546512 15.3823171,20.7234879 C10.9509146,25.1895627 0,41.2944992 0,41.2944992 L8.41280488,54.1486193" id="Fill-23"></path>
            </g>
        </g>
    </g>
</svg>