<?xml version="1.0" encoding="UTF-8" standalone="no"?>
<svg width="26px" height="18px" viewBox="0 0 26 18" version="1.1" xmlns="http://www.w3.org/2000/svg" xmlns:xlink="http://www.w3.org/1999/xlink">
    <!-- Generator: Sketch 42 (36781) - http://www.bohemiancoding.com/sketch -->
    <title>Group 60</title>
    <desc>Created with Sketch.</desc>
    <defs></defs>
    <g id="Page-1" stroke="none" stroke-width="1" fill="none" fill-rule="evenodd">
        <g id="8_5_view-bil" transform="translate(-1293.000000, -646.000000)" fill="#000000">
            <g id="Group-29" transform="translate(310.000000, 0.000000)">
                <g id="Group-172" transform="translate(242.000000, 174.000000)">
                    <g id="Group-45" transform="translate(0.000000, 446.000000)">
                        <g id="Group-44" transform="translate(510.000000, 26.000000)">
                            <g id="Group-60" transform="translate(231.000000, 0.000000)">
                                <path d="M10.5405405,17.6062055 L15.4018378,17.6062055 L24.1525946,5.50605161 C24.1525946,5.50605161 24.4765405,4.57974391 23.2615676,4.97782084 C22.0458919,5.37797468 20.8491892,3.08989776 20.365027,3.51428238 C19.6574054,4.13528238 15.9682162,9.74020545 15.9682162,9.74020545 L10.5405405,17.6062055" id="Fill-18"></path>
                                <path d="M16.7011351,2.00215385 C16.7011351,3.10776923 15.7932432,4.00361538 14.6745405,4.00361538 C13.5551351,4.00361538 12.6486486,3.10776923 12.6486486,2.00215385 C12.6486486,0.895846154 13.5551351,0 14.6745405,0 C15.7932432,0 16.7011351,0.895846154 16.7011351,2.00215385" id="Fill-19"></path>
                                <path d="M25.8334595,2.00215385 C25.8334595,3.10776923 24.9262703,4.00361538 23.8082703,4.00361538 C22.6902703,4.00361538 21.7837838,3.10776923 21.7837838,2.00215385 C21.7837838,0.895846154 22.6902703,0 23.8082703,0 C24.9262703,0 25.8334595,0.895846154 25.8334595,2.00215385" id="Fill-20"></path>
                                <path d="M8.96859459,2.69376923 C8.96859459,3.79938462 8.06210811,4.69384615 6.9427027,4.69384615 C5.82681081,4.69384615 4.91891892,3.79938462 4.91891892,2.69376923 C4.91891892,1.58815385 5.82681081,0.692307692 6.9427027,0.692307692 C8.06210811,0.692307692 8.96859459,1.58815385 8.96859459,2.69376923" id="Fill-21"></path>
                                <path d="M3.55567568,17.9321774 L8.05227027,17.9321774 L15.6463784,6.59079281 C15.6463784,6.59079281 16.3118378,5.54333127 15.0603243,5.78494665 C12.9943784,6.18440819 12.532,3.66025435 12.0618919,4.2411005 C10.6845946,5.94763896 3.51351351,16.6977928 3.51351351,16.6977928 L3.55567568,17.9321774" id="Fill-22"></path>
                                <path d="M2.15448649,13.572835 L7.34254054,6.63521963 C7.34254054,6.63521963 7.7472973,5.55521963 6.28918919,5.7947581 C4.82967568,6.03498886 5.07281081,4.07437348 3.93935135,5.19452733 C2.80448649,6.31398886 0,10.350835 0,10.350835 L2.15448649,13.572835" id="Fill-23"></path>
                            </g>
                        </g>
                    </g>
                </g>
            </g>
        </g>
    </g>
</svg>