<?xml version="1.0" encoding="UTF-8" standalone="no"?>
<svg width="37px" height="26px" viewBox="0 0 37 26" version="1.1" xmlns="http://www.w3.org/2000/svg" xmlns:xlink="http://www.w3.org/1999/xlink">
    <!-- Generator: Sketch 42 (36781) - http://www.bohemiancoding.com/sketch -->
    <title>Group</title>
    <desc>Created with Sketch.</desc>
    <defs></defs>
    <g id="Page-1" stroke="none" stroke-width="1" fill="none" fill-rule="evenodd">
        <g id="3_0_dashboard" transform="translate(-353.000000, -50.000000)" fill="#FFFFFF">
            <g id="Group-4" transform="translate(310.000000, 0.000000)">
                <g id="Group-11">
                    <g id="Group-10">
                        <g id="Group-8" transform="translate(0.000000, 50.000000)">
                            <g id="Group" transform="translate(43.000000, 0.000000)">
                                <path d="M15,25.4311857 L21.918,25.4311857 L34.371,7.95318565 C34.371,7.95318565 34.832,6.61518565 33.103,7.19018565 C31.373,7.76818565 29.67,4.46318565 28.981,5.07618565 C27.974,5.97318565 22.724,14.0691857 22.724,14.0691857 L15,25.4311857" id="Fill-18"></path>
                                <path d="M23.767,2.892 C23.767,4.489 22.475,5.783 20.883,5.783 C19.29,5.783 18,4.489 18,2.892 C18,1.294 19.29,0 20.883,0 C22.475,0 23.767,1.294 23.767,2.892" id="Fill-19"></path>
                                <path d="M36.763,2.892 C36.763,4.489 35.472,5.783 33.881,5.783 C32.29,5.783 31,4.489 31,2.892 C31,1.294 32.29,0 33.881,0 C35.472,0 36.763,1.294 36.763,2.892" id="Fill-20"></path>
                                <path d="M12.763,3.891 C12.763,5.488 11.473,6.78 9.88,6.78 C8.292,6.78 7,5.488 7,3.891 C7,2.294 8.292,1 9.88,1 C11.473,1 12.763,2.294 12.763,3.891" id="Fill-21"></path>
                                <path d="M5.06,25.9020341 L11.459,25.9020341 L22.266,9.52003406 C22.266,9.52003406 23.213,8.00703406 21.432,8.35603406 C18.492,8.93303406 17.834,5.28703406 17.165,6.12603406 C15.205,8.59103406 5,24.1190341 5,24.1190341 L5.06,25.9020341" id="Fill-22"></path>
                                <path d="M3.066,19.6052061 L10.449,9.58420614 C10.449,9.58420614 11.025,8.02420614 8.95,8.37020614 C6.873,8.71720614 7.219,5.88520614 5.606,7.50320614 C3.991,9.12020614 0,14.9512061 0,14.9512061 L3.066,19.6052061" id="Fill-23"></path>
                            </g>
                        </g>
                    </g>
                </g>
            </g>
        </g>
    </g>
</svg>