<?xml version="1.0" encoding="UTF-8" standalone="no"?>
<svg width="19px" height="20px" viewBox="0 0 19 20" version="1.1" xmlns="http://www.w3.org/2000/svg" xmlns:xlink="http://www.w3.org/1999/xlink">
    <!-- Generator: Sketch 42 (36781) - http://www.bohemiancoding.com/sketch -->
    <title>logout</title>
    <desc>Created with Sketch.</desc>
    <defs>
        <polygon id="path-1" points="0.00453629032 19.9954545 18.75 19.9954545 18.75 0 0.00453629032 0"></polygon>
    </defs>
    <g id="Page-1" stroke="none" stroke-width="1" fill="none" fill-rule="evenodd">
        <g id="3_0_dashboard" transform="translate(-397.000000, -227.000000)">
            <g id="Group-4" transform="translate(310.000000, 0.000000)">
                <g id="Group-11">
                    <g id="Group-10">
                        <g id="Group-8" transform="translate(0.000000, 50.000000)">
                            <g id="Group-5" transform="translate(18.000000, 174.000000)">
                                <g id="logout" transform="translate(69.000000, 3.000000)">
                                    <mask id="mask-2" fill="white">
                                        <use xlink:href="#path-1"></use>
                                    </mask>
                                    <g id="Clip-2"></g>
                                    <path d="M14.2506048,5.11454545 C13.896245,4.75969697 13.3217994,4.75969697 12.9674395,5.11454545 C12.6133065,5.46962121 12.613004,6.04522727 12.9674395,6.40030303 L15.6525454,9.09090909 L4.53629032,9.09090909 C4.03540827,9.09090909 3.62903226,9.49780303 3.62903226,10 C3.62903226,10.502197 4.03540827,10.9090909 4.53629032,10.9090909 L15.6525454,10.9090909 L12.9674395,13.5993939 C12.613004,13.9544697 12.613004,14.5300758 12.9674395,14.8851515 C13.1445817,15.0627273 13.3767641,15.1515152 13.608871,15.1515152 C13.8412802,15.1515152 14.0734627,15.0627273 14.2506048,14.8851515 L18.4841734,10.6427273 C18.8386089,10.2879545 18.8386089,9.71234848 18.4841734,9.35727273 L14.2506048,5.11454545 Z" id="Fill-1" fill="#FFFFFF" mask="url(#mask-2)"></path>
                                    <path d="M8.77016129,20 C9.27134577,20 9.67741935,19.5931061 9.67741935,19.0909091 C9.67741935,18.5887121 9.27134577,18.1818182 8.77016129,18.1818182 L1.81451613,18.1818182 L1.81451613,1.81818182 L8.77016129,1.81818182 C9.27134577,1.81818182 9.67741935,1.41128788 9.67741935,0.909090909 C9.67741935,0.406893939 9.27134577,0 8.77016129,0 L0.907258065,0 C0.406073589,0 0,0.406893939 0,0.909090909 L0,19.0909091 C0,19.5931061 0.406073589,20 0.907258065,20 L8.77016129,20 Z" id="Fill-3" fill="#FFFFFF" mask="url(#mask-2)"></path>
                                </g>
                            </g>
                        </g>
                    </g>
                </g>
            </g>
        </g>
    </g>
</svg>