<?xml version="1.0" encoding="UTF-8" standalone="no"?>
<svg width="60px" height="80px" viewBox="0 0 60 80" version="1.1" xmlns="http://www.w3.org/2000/svg" xmlns:xlink="http://www.w3.org/1999/xlink">
    <!-- Generator: Sketch 42 (36781) - http://www.bohemiancoding.com/sketch -->
    <title>Group 15</title>
    <desc>Created with Sketch.</desc>
    <defs></defs>
    <g id="Page-1" stroke="none" stroke-width="1" fill="none" fill-rule="evenodd">
        <g id="4_3_association-membership-type" transform="translate(-770.000000, -603.000000)" fill="#474747">
            <g id="Group-4" transform="translate(470.000000, 120.000000)">
                <g id="Group-183" transform="translate(46.000000, 92.000000)">
                    <g id="Group-22" transform="translate(188.000000, 357.000000)">
                        <g id="Group-16" transform="translate(0.000000, 13.000000)">
                            <g id="Group-15" transform="translate(65.000000, 21.000000)">
                                <text id="Manual-ID" font-family="ProximaNova-Regular, Proxima Nova" font-size="14" font-weight="normal">
                                    <tspan x="0" y="79">Manual ID</tspan>
                                </text>
                                <g id="Group-11" transform="translate(4.000000, 0.000000)">
                                    <path d="M10.5492241,10.3593262 C10.5492241,10.490791 10.4428849,10.5976191 10.3122277,10.5976191 L4.34826534,10.5976191 L10.5492241,4.36804883 L10.5492241,10.3593262 Z M40.2716615,29.3912949 C39.5685036,29.3912949 38.9982697,29.9640469 38.9982697,30.670541 L38.9982697,50.2022832 C38.9982697,50.3341621 38.8920335,50.4415078 38.7614794,50.4415078 L2.78511964,50.4415078 C2.65384426,50.4415078 2.5469898,50.3341621 2.5469898,50.2022832 L2.5469898,13.1561113 L10.3122277,13.1561113 C11.847346,13.1561113 13.0960078,11.901502 13.0960078,10.3593262 L13.0960078,2.55849219 L38.7614794,2.55849219 C38.8920335,2.55849219 38.9982697,2.66583789 38.9982697,2.7977168 L38.9982697,6.83410156 C38.9982697,7.5405957 39.5685036,8.11334766 40.2716615,8.11334766 C40.9748195,8.11334766 41.5450534,7.5405957 41.5450534,6.83410156 L41.5450534,2.7977168 C41.5450534,1.25512695 40.2964946,0 38.7614794,0 L11.8223069,0 C11.4846385,0 11.1607778,0.134880859 10.9219267,0.374726563 L0.373011695,10.9721387 C0.134263602,11.2119844 0,11.5374375 0,11.8766582 L0,50.2022832 C0,51.744873 1.24938309,53 2.78491356,53 L38.7613763,53 C40.2963916,53 41.5449503,51.744873 41.5449503,50.2022832 L41.5449503,30.670541 C41.5450534,29.9641504 40.9749225,29.3912949 40.2716615,29.3912949 L40.2716615,29.3912949 Z" id="Fill-1"></path>
                                    <path d="M48.2729685,14.7048086 L46.668503,16.3166504 L42.6785143,12.3083184 L44.2829798,10.6964766 C44.9701663,10.0061309 46.0879649,10.0063379 46.7747392,10.6964766 L48.2729685,12.2015937 C48.9600519,12.8918359 48.9600519,14.0147734 48.2729685,14.7048086 Z M19.3537427,37.0324043 L22.0575623,39.7487578 L18.314359,40.7927129 L19.3537427,37.0324043 Z M24.5016132,38.5856563 L20.5117276,34.5774277 L40.877754,14.1177715 L44.8677426,18.1258965 L24.5016132,38.5856563 Z M50.0740379,10.3925547 L48.5757056,8.8874375 C46.8957104,7.19971875 44.1622147,7.19992578 42.4820134,8.8874375 L30.5885046,20.835625 L9.95910313,20.835625 C9.25584213,20.835625 8.68571127,21.408377 8.68571127,22.1149746 C8.68571127,22.8214687 9.25584213,23.3942207 9.95910313,23.3942207 L28.0417209,23.3942207 L20.3775671,31.0936094 L9.95910313,31.0936094 C9.25584213,31.0936094 8.68571127,31.6663613 8.68571127,32.3728555 C8.68571127,33.0793496 9.25584213,33.6521016 9.95910313,33.6521016 L17.8306803,33.6521016 L17.810175,33.6727012 C17.6547878,33.8288027 17.5424721,34.0224805 17.4837382,34.2351016 L15.5167713,41.3514902 L9.95910313,41.3514902 C9.25584213,41.3514902 8.68571127,41.9242422 8.68571127,42.6307363 C8.68571127,43.337334 9.25584213,43.9100859 9.95910313,43.9100859 L16.484953,43.9100859 C16.4850561,43.9100859 16.7640936,43.8783066 16.8051042,43.867541 C16.811802,43.8657812 24.8420637,41.6273594 24.8420637,41.6273594 C25.0537118,41.5683555 25.2467092,41.4553164 25.4018903,41.2993184 L50.0740379,16.5140547 C51.7538271,14.8263359 51.7538271,12.0802734 50.0740379,10.3925547 L50.0740379,10.3925547 Z" id="Fill-3"></path>
                                </g>
                            </g>
                        </g>
                    </g>
                </g>
            </g>
        </g>
    </g>
</svg>