<?xml version="1.0" encoding="UTF-8" standalone="no"?>
<svg width="66px" height="80px" viewBox="0 0 66 80" version="1.1" xmlns="http://www.w3.org/2000/svg" xmlns:xlink="http://www.w3.org/1999/xlink">
    <!-- Generator: Sketch 42 (36781) - http://www.bohemiancoding.com/sketch -->
    <title>Group 13</title>
    <desc>Created with Sketch.</desc>
    <defs></defs>
    <g id="Page-1" stroke="none" stroke-width="1" fill="none" fill-rule="evenodd">
        <g id="4_3_association-membership-type" transform="translate(-1223.000000, -603.000000)" fill="#474747">
            <g id="Group-4" transform="translate(470.000000, 120.000000)">
                <g id="Group-183" transform="translate(46.000000, 92.000000)">
                    <g id="Group-22" transform="translate(188.000000, 357.000000)">
                        <g id="Group-19" transform="translate(456.000000, 13.000000)">
                            <g id="Group-13" transform="translate(62.000000, 21.000000)">
                                <g id="Group-17">
                                    <path d="M35.91424,7.13623077 L39.49152,7.13623077 L39.49152,0 L35.91424,0 L35.91424,7.13623077 Z M56.06528,7.772 L53.52736,5.24676923 L48.46048,10.2905385 L50.9984,12.818 L56.06528,7.772 Z M30.97952,10.2905385 L25.91264,5.24676923 L23.37472,7.772 L28.4416,12.818 L30.97952,10.2905385 Z M39.49152,10.9263077 L5,45.2868462 L13.51424,53.766 L48.12,19.2916923 L39.49152,10.9263077 Z M32.22048,23.4230769 L39.50048,16.1730769 L43.08,19.5192308 L35.68576,26.883 L32.22048,23.4230769 Z M45.66048,31.6412308 L50.72736,36.685 L53.26528,34.1664615 L48.1984,29.1226923 L45.66048,31.6412308 Z M52.04,24.9823846 L59.20576,24.9823846 L59.20576,21.4198462 L52.04,21.4198462 L52.04,24.9823846 Z" id="magic-wand"></path>
                                    <text id="Random-ID" font-family="ProximaNova-Regular, Proxima Nova" font-size="14" font-weight="normal">
                                        <tspan x="0" y="79">Random ID</tspan>
                                    </text>
                                </g>
                            </g>
                        </g>
                    </g>
                </g>
            </g>
        </g>
    </g>
</svg>