<?xml version="1.0" encoding="utf-8"?>
<!-- Generator: Adobe Illustrator 19.0.0, SVG Export Plug-In . SVG Version: 6.00 Build 0)  -->
<svg version="1.1" id="Layer_1" xmlns="http://www.w3.org/2000/svg" xmlns:xlink="http://www.w3.org/1999/xlink" x="0px" y="0px"
	 viewBox="0 0 512 512" style="enable-background:new 0 0 512 512;" xml:space="preserve">
<style type="text/css">
	.st0{fill:#293140;}
</style>
<g id="XMLID_1_">
	<path id="XMLID_190_" class="st0" d="M215.2,432.1h94.3l169.8-238.5c0,0,6.3-18.7-17.3-10.8c-23.6,7.9-46.8-37.3-56.2-29
		c-13.7,12.2-85.3,123.1-85.3,123.1L215.2,432.1z"/>
	<path id="XMLID_187_" class="st0" d="M337,119.2c0,21.7-17.6,39.3-39.3,39.3c-21.7,0-39.3-17.6-39.3-39.3
		c0-21.7,17.6-39.3,39.3-39.3C319.4,79.9,337,97.5,337,119.2z"/>
	<path id="XMLID_184_" class="st0" d="M506.8,119.2c0,21.7-17.6,39.3-39.3,39.3c-21.7,0-39.3-17.6-39.3-39.3
		c0-21.7,17.6-39.3,39.3-39.3C489.2,79.9,506.8,97.5,506.8,119.2z"/>
	<path id="XMLID_181_" class="st0" d="M186.2,138.1c0,21.7-17.6,39.3-39.3,39.3c-21.7,0-39.3-17.6-39.3-39.3
		c0-21.7,17.6-39.3,39.3-39.3C168.6,98.8,186.2,116.4,186.2,138.1z"/>
	<path id="XMLID_178_" class="st0" d="M76.9,432.1h87.2l147.4-223.6c0,0,12.9-21.1-11.4-16.3c-40.1,7.8-49.1-42-58.2-30.6
		C215.2,195.1,76.1,407,76.1,407L76.9,432.1z"/>
	<path id="XMLID_175_" class="st0" d="M47,349.7l100.6-136.2c0,0,7.9-21.2-20.4-16.5c-28.3,4.7-23.6-33.8-45.6-11.8
		c-22,22-76.4,101.2-76.4,101.2L47,349.7z"/>
</g>
</svg>
