<?xml version="1.0" encoding="UTF-8" standalone="no"?>
<svg width="20px" height="20px" viewBox="0 0 20 20" version="1.1" xmlns="http://www.w3.org/2000/svg" xmlns:xlink="http://www.w3.org/1999/xlink">
    <!-- Generator: Sketch 42 (36781) - http://www.bohemiancoding.com/sketch -->
    <title>settings</title>
    <desc>Created with Sketch.</desc>
    <defs></defs>
    <g id="Page-1" stroke="none" stroke-width="1" fill="none" fill-rule="evenodd">
        <g id="3_0_dashboard" transform="translate(-364.000000, -227.000000)" fill="#FFFFFF">
            <g id="Group-4" transform="translate(310.000000, 0.000000)">
                <g id="Group-11">
                    <g id="Group-10">
                        <g id="Group-8" transform="translate(0.000000, 50.000000)">
                            <g id="Group-5" transform="translate(18.000000, 174.000000)">
                                <path d="M37.9310095,22.2752373 C37.9310095,22.6721311 38.2413503,22.9827437 38.6378968,22.9827437 C39.0344434,22.9827437 39.3447842,22.6721311 39.3447842,22.2752373 L39.3447842,8.26315789 C40.4827005,7.9525453 41.3275172,6.91716997 41.3275172,5.67471959 C41.3275172,4.20793788 40.1378774,3 38.655138,3 C37.1723986,3 36,4.20793788 36,5.67471959 C36,6.89991372 36.8275755,7.93528904 37.9482506,8.24590164 L37.9482506,22.2752373 L37.9310095,22.2752373 Z M37.3792925,5.67471959 C37.3792925,4.98446937 37.9482506,4.41501294 38.6378968,4.41501294 C39.3275431,4.41501294 39.8965012,4.98446937 39.8965012,5.67471959 C39.8965012,6.3649698 39.3275431,6.93442623 38.6378968,6.93442623 C37.9482506,6.93442623 37.3792925,6.3649698 37.3792925,5.67471959 Z M45.9826292,3 L45.9826292,3 C46.3791758,3 46.6895166,3.3106126 46.6895166,3.70750647 L46.6895166,10.9551337 C47.8274329,11.2657463 48.6722496,12.3011217 48.6722496,13.543572 C48.6722496,14.7860224 47.8274329,15.8213978 46.6895166,16.1320104 L46.6895166,22.2924935 C46.6895166,22.6893874 46.3791758,23 45.9826292,23 C45.5860827,23 45.2757419,22.6893874 45.2757419,22.2924935 L45.2757419,16.1320104 C44.1550667,15.8213978 43.3274912,14.7860224 43.3274912,13.5608283 C43.3274912,12.3356342 44.1550667,11.3002588 45.2757419,10.9896462 L45.2757419,3.70750647 C45.2757419,3.3106126 45.5860827,3 45.9826292,3 Z M47.2757159,13.5608283 C47.2757159,12.8533218 46.7067578,12.3011217 46.0171116,12.3011217 C45.3274653,12.3011217 44.7585072,12.8705781 44.7585072,13.5608283 C44.7585072,14.2510785 45.3274653,14.8205349 46.0171116,14.8205349 C46.7067578,14.8205349 47.2757159,14.2510785 47.2757159,13.5608283 Z M54.034249,17.7368421 C55.1721653,18.0474547 56.016982,19.08283 55.9997408,20.3080242 C55.9997408,21.7920621 54.8101011,22.9827437 53.3273617,22.9827437 C51.8446222,22.9827437 50.6549825,21.7748059 50.6549825,20.3080242 C50.6549825,19.08283 51.482558,18.0474547 52.6204743,17.7368421 L52.6204743,3.70750647 C52.6204743,3.3106126 52.9308151,3 53.3273617,3 C53.7239082,3 54.034249,3.3106126 54.034249,3.70750647 L54.034249,17.7368421 Z M53.3446028,21.5677308 C54.034249,21.5677308 54.6032072,20.9982744 54.6032072,20.3080242 C54.6032072,19.6177739 54.034249,19.0483175 53.3446028,19.0483175 C52.6549566,19.0483175 52.0859984,19.6177739 52.0859984,20.3080242 C52.0859984,20.9982744 52.6549566,21.5677308 53.3446028,21.5677308 Z" id="settings"></path>
                            </g>
                        </g>
                    </g>
                </g>
            </g>
        </g>
    </g>
</svg>